<svg width="441" height="440" viewBox="0 0 441 440" fill="none" xmlns="http://www.w3.org/2000/svg">
<path fill-rule="evenodd" clip-rule="evenodd" d="M219.99 0C340.989 0 440.081 98.6679 440.081 219.746C440.081 340.825 340.888 440 219.99 440C99.0917 440 0 341.231 0 219.746C0 98.2623 98.686 0 219.99 0ZM189.562 410.085L283.38 247.126H219.888L251.431 192.468H400.525L368.881 247.329L315.025 247.126L219.888 412.519C325.776 412.519 412.595 325.716 412.595 219.645C412.595 113.575 325.877 27.5824 219.99 27.5824C212.281 27.5824 204.472 28.0894 197.271 29.0021L102.642 192.57H219.99L188.142 247.227H39.3527L160.758 37.0131C83.4724 62.0604 27.3846 134.768 27.3846 219.746C27.3846 315.474 97.7732 395.381 189.562 410.085Z" fill="white"/>
</svg>
